<?xml version="1.0" encoding="utf-8"?>
<!-- Generator: Adobe Illustrator 16.0.0, SVG Export Plug-In . SVG Version: 6.00 Build 0)  -->
<!DOCTYPE svg PUBLIC "-//W3C//DTD SVG 1.1//EN" "http://www.w3.org/Graphics/SVG/1.1/DTD/svg11.dtd">
<svg version="1.1" xmlns="http://www.w3.org/2000/svg" xmlns:xlink="http://www.w3.org/1999/xlink" x="0px" y="0px"
	 width="169.144px" height="219.907px" viewBox="0 0 169.144 219.907" enable-background="new 0 0 169.144 219.907"
	 xml:space="preserve">
<g id="Background">
	
		<radialGradient id="SVGID_1_" cx="582.98" cy="168.4629" r="100.1164" gradientTransform="matrix(3.0413 0 0 0.4539 -1150.8962 181.7706)" gradientUnits="userSpaceOnUse">
		<stop  offset="0.005" style="stop-color:#000000"/>
		<stop  offset="1" style="stop-color:#FFFFFF;stop-opacity:0"/>
	</radialGradient>
	<ellipse opacity="0.26" fill="url(#SVGID_1_)" cx="622.123" cy="258.235" rx="304.485" ry="45.443"/>
</g>
<g id="Objects">
	<path fill="#FFFFFF" d="M167.088,171.024l-39.199-39.203c-2.242-2.242-5.715-2.701-8.465-1.113l-22.852,13.193l-28.994-16.74
		V93.683l28.994-16.738l22.85,13.191c2.75,1.588,6.221,1.129,8.465-1.113l39.199-39.203c1.541-1.541,2.277-3.713,1.994-5.873
		c-0.285-2.162-1.559-4.068-3.447-5.158l-65.555-37.85c-2.17-1.252-4.844-1.252-7.014,0L3.506,52.646
		C1.336,53.898,0,56.212,0,58.718V162.13c0,2.504,1.336,4.82,3.506,6.072l89.559,51.705c1.086,0.627,2.297,0.939,3.508,0.939
		c1.209,0,2.422-0.313,3.506-0.939l65.559-37.85c1.889-1.09,3.162-2.996,3.447-5.158
		C169.367,174.737,168.631,172.567,167.088,171.024z M121.773,75.3l-21.695-12.525c-2.17-1.254-4.844-1.254-7.014,0L57.059,83.562
		c-2.17,1.252-3.508,3.568-3.508,6.072v41.576c0,2.506,1.338,4.82,3.508,6.074l36.006,20.789c2.17,1.252,4.844,1.252,7.014,0
		l21.697-12.529l9.334,9.334l-34.537,19.941l-55.771-32.197V78.224l55.771-32.197l34.535,19.941L121.773,75.3z M96.572,205.737
		l-82.547-47.658V62.767l82.547-47.656l54.135,31.254l-9.334,9.336l-41.295-23.844c-2.17-1.252-4.844-1.252-7.014,0L30.283,68.104
		c-2.17,1.252-3.508,3.566-3.508,6.072v72.492c0,2.506,1.338,4.82,3.508,6.074l62.781,36.248c1.086,0.627,2.297,0.939,3.508,0.939
		c1.209,0,2.422-0.313,3.506-0.939l41.299-23.846l9.334,9.334L96.572,205.737z"/>
</g>
</svg>
